<?xml version="1.0" encoding="UTF-8"?>
<svg id="_レイヤー_1" data-name="レイヤー_1" xmlns="http://www.w3.org/2000/svg" version="1.1" viewBox="0 0 850.39 850.39">
  <!-- Generator: Adobe Illustrator 29.8.2, SVG Export Plug-In . SVG Version: 2.1.1 Build 3)  -->
  <path d="M476.09,634.35h-71.28v-299.24h-109.3v-49.69c82.39-.56,98.75-23.41,119.78-77.71h60.8v426.64h0Z" style="fill: #040000;"/>
  <path d="M422.97,816.59c-101.93,0-197.76-39.69-269.84-111.77-72.08-72.08-111.77-167.9-111.77-269.84s39.69-197.76,111.77-269.84c72.08-72.08,167.91-111.77,269.84-111.77s197.76,39.69,269.84,111.77c72.08,72.08,111.77,167.91,111.77,269.84s-39.69,197.76-111.77,269.84c-72.08,72.08-167.91,111.77-269.84,111.77ZM422.97,106.5c-87.74,0-170.23,34.17-232.27,96.21s-96.21,144.53-96.21,232.28,34.17,170.23,96.21,232.27,144.53,96.21,232.27,96.21,170.23-34.17,232.27-96.21c62.04-62.04,96.21-144.53,96.21-232.27s-34.17-170.23-96.21-232.28c-62.04-62.04-144.53-96.21-232.27-96.21Z" style="fill: #040000;"/>
</svg>