<?xml version="1.0" encoding="UTF-8"?>
<svg id="_レイヤー_1" data-name="レイヤー_1" xmlns="http://www.w3.org/2000/svg" version="1.1" viewBox="0 0 850.39 850.39">
  <!-- Generator: Adobe Illustrator 29.8.2, SVG Export Plug-In . SVG Version: 2.1.1 Build 3)  -->
  <path d="M584.29,559.6v60.8h-291.63c11.67-88.26,39.76-138.51,137.95-202.8,63.73-42.07,80.08-67.79,80.08-101.12,0-28.65-12.86-68.35-63.73-68.35-62.55,0-68.35,52.62-69.54,90.57h-71.28c1.19-38.58,6.43-152.55,141.44-152.55,106.36,0,135.58,78.9,135.58,128.59,0,70.16-49.06,109.3-112.23,151.37-67.23,45-78.34,63.11-90.57,93.51h203.99-.06Z" style="fill: #040000;"/>
  <path d="M434.73,802.64c-101.93,0-197.76-39.69-269.84-111.77-72.08-72.08-111.77-167.91-111.77-269.84s39.69-197.76,111.77-269.84c72.08-72.08,167.91-111.77,269.84-111.77s197.76,39.69,269.84,111.77c72.08,72.08,111.77,167.91,111.77,269.84s-39.69,197.76-111.77,269.84c-72.07,72.08-167.9,111.77-269.84,111.77ZM434.73,92.54c-87.74,0-170.23,34.17-232.28,96.21-62.04,62.04-96.21,144.53-96.21,232.27s34.17,170.23,96.21,232.27c62.04,62.04,144.53,96.21,232.28,96.21s170.23-34.17,232.27-96.21c62.04-62.04,96.21-144.53,96.21-232.27s-34.17-170.23-96.21-232.27c-62.04-62.04-144.53-96.21-232.27-96.21Z" style="fill: #040000;"/>
</svg>