<?xml version="1.0" encoding="UTF-8"?>
<svg id="_レイヤー_1" data-name="レイヤー_1" xmlns="http://www.w3.org/2000/svg" version="1.1" viewBox="0 0 850.39 850.39">
  <!-- Generator: Adobe Illustrator 29.8.2, SVG Export Plug-In . SVG Version: 2.1.1 Build 3)  -->
  <path d="M347.29,510.4c1.75,23.41,5.87,82.39,74.22,82.39,39.76,0,71.91-23.97,71.91-73.03,0-66.04-61.36-72.47-85.89-72.47h-23.97v-50.87h23.97c40.89,0,75.97-23.41,75.97-66.6,0-33.33-19.85-57.86-59.05-57.86-65.48,0-68.35,56.68-68.97,73.03h-70.72c3.5-85.89,59.61-133.27,139.7-133.27,85.89,0,129.77,57.3,129.77,112.23,0,39.76-19.29,73.03-56.68,88.26,61.92,30.4,67.79,81.83,67.79,108.11,0,75.96-55.49,133.27-146.13,133.27-85.33,0-139.07-52.62-143.75-143.19h71.91-.06Z" style="fill: #040000;"/>
  <path d="M410.46,828.21c-101.93,0-197.76-39.69-269.84-111.77-72.08-72.08-111.77-167.91-111.77-269.84s39.69-197.76,111.77-269.84c72.08-72.07,167.91-111.77,269.84-111.77s197.76,39.69,269.84,111.77c72.08,72.08,111.77,167.91,111.77,269.84s-39.69,197.76-111.77,269.84c-72.08,72.07-167.91,111.77-269.84,111.77ZM410.46,118.12c-87.74,0-170.23,34.17-232.28,96.21-62.04,62.04-96.21,144.53-96.21,232.28s34.17,170.23,96.21,232.28c62.04,62.04,144.53,96.21,232.28,96.21s170.23-34.17,232.27-96.21c62.04-62.04,96.21-144.53,96.21-232.28s-34.17-170.23-96.21-232.28c-62.04-62.04-144.53-96.21-232.27-96.21Z" style="fill: #040000;"/>
</svg>