<?xml version="1.0" encoding="UTF-8"?>
<svg id="_レイヤー_1" data-name="レイヤー_1" xmlns="http://www.w3.org/2000/svg" version="1.1" viewBox="0 0 850.39 850.39">
  <!-- Generator: Adobe Illustrator 29.8.2, SVG Export Plug-In . SVG Version: 2.1.1 Build 3)  -->
  <path d="M516.46,482.5h57.3v60.8h-57.3v94.07h-70.72v-94.07h-179.4v-60.8l167.72-271.78h82.39v271.78ZM445.73,482.5v-191.69l-118.04,191.69h118.04Z" style="fill: #040000;"/>
  <path d="M425.2,806.8c-101.93,0-197.76-39.69-269.84-111.77-72.08-72.08-111.77-167.91-111.77-269.84s39.69-197.76,111.77-269.84c72.08-72.07,167.91-111.77,269.84-111.77s197.76,39.69,269.84,111.77c72.08,72.08,111.77,167.91,111.77,269.84s-39.69,197.76-111.77,269.84c-72.07,72.07-167.9,111.77-269.84,111.77ZM425.2,96.71c-87.74,0-170.23,34.17-232.28,96.21-62.04,62.04-96.21,144.53-96.21,232.28s34.17,170.23,96.21,232.28c62.04,62.04,144.53,96.21,232.28,96.21s170.23-34.17,232.27-96.21c62.04-62.04,96.21-144.53,96.21-232.28s-34.17-170.23-96.21-232.28c-62.04-62.04-144.53-96.21-232.27-96.21Z" style="fill: #040000;"/>
</svg>