<?xml version="1.0" encoding="UTF-8"?>
<svg id="_レイヤー_1" data-name="レイヤー_1" xmlns="http://www.w3.org/2000/svg" version="1.1" viewBox="0 0 2282.21 2239.68">
  <!-- Generator: Adobe Illustrator 29.8.3, SVG Export Plug-In . SVG Version: 2.1.1 Build 3)  -->
  <rect x="-284.21" y="-414.11" width="6000" height="3000" style="fill: none;"/>
  <path d="M1981.36,936.35c-127.37-422.56-574.78-662.73-997.33-535.35-43.33,13.06-85.34,29.75-125.58,49.76l28.59-127.47c11.86-52.87-21.4-105.36-74.27-117.22-52.89-11.83-105.36,21.41-117.22,74.27l-85.31,380.41c-.67,2.8-1.21,5.63-1.63,8.47-.03.18-.06.37-.08.55-.04.27-.07.54-.11.8-1.82,13.4-.82,26.63,2.59,39.04,0,0,0,0,0,0,.17.63.35,1.26.54,1.88.07.24.14.48.21.71.12.39.24.77.36,1.16.15.47.3.95.46,1.42.05.15.1.3.15.45,3.92,11.58,10.05,22.57,18.39,32.28.02.02.04.05.06.07.13.15.26.3.4.45,6.88,7.94,15.06,14.81,24.31,20.25.05.03.1.06.16.09.56.33,1.12.65,1.69.97.19.11.39.22.58.33.42.23.84.46,1.26.68.35.19.7.37,1.05.55.27.14.54.28.81.41.51.26,1.02.51,1.53.76.13.06.25.12.38.18,7.15,3.42,14.61,5.92,22.23,7.51l380.5,85.33c7.23,1.62,14.45,2.4,21.56,2.4,44.9,0,85.42-31.03,95.65-76.67,11.86-52.87-21.4-105.36-74.27-117.22l-177.5-39.81c34.69-18.4,71.25-33.48,109.16-44.91,318.97-96.1,656.67,85.15,752.8,404.1,46.57,154.51,30.19,317.91-46.14,460.09-76.32,142.19-203.45,246.15-357.96,292.71-154.52,46.56-317.91,30.17-460.09-46.14-142.18-76.32-246.14-203.45-292.71-357.96-13.5-44.78-21.81-90.9-24.71-137.06-3.4-54.09-50.21-95.33-104.08-91.78-54.09,3.4-95.17,50-91.78,104.08,3.85,61.18,14.84,122.21,32.67,181.39,61.7,204.7,199.42,373.12,387.79,474.24,118.08,63.38,247.17,95.56,377.5,95.55,77.6,0,155.65-11.41,232.04-34.44,204.7-61.69,373.12-199.41,474.23-387.79,101.12-188.37,122.83-404.84,61.13-609.54Z"/>
</svg>