<?xml version="1.0" encoding="UTF-8"?>
<svg id="_レイヤー_1" data-name="レイヤー_1" xmlns="http://www.w3.org/2000/svg" version="1.1" viewBox="0 0 841.89 595.28">
  <!-- Generator: Adobe Illustrator 29.8.1, SVG Export Plug-In . SVG Version: 2.1.1 Build 2)  -->
  <defs>
    <style>
      .st0 {
        fill: #231815;
      }

      .st1 {
        fill: #fff;
      }

      .st2 {
        fill: #040000;
      }
    </style>
  </defs>
  <g>
    <rect class="st1" x="109.11" y="43.51" width="571.13" height="508.25" rx="20.03" ry="20.03"/>
    <path class="st0" d="M660.21,553.5H129.13c-12,0-21.77-9.77-21.77-21.77V63.54c0-12,9.77-21.77,21.77-21.77h531.08c12,0,21.77,9.77,21.77,21.77v468.19c0,12-9.77,21.77-21.77,21.77ZM129.13,45.26c-10.08,0-18.28,8.2-18.28,18.28v468.19c0,10.08,8.2,18.28,18.28,18.28h531.08c10.08,0,18.28-8.2,18.28-18.28V63.54c0-10.08-8.2-18.28-18.28-18.28H129.13Z"/>
  </g>
  <g>
    <path class="st2" d="M509.24,338.24h-223.47c-10.49,0-19.02-8.53-19.02-19.02v-116.04c0-10.49,8.53-19.02,19.02-19.02h223.47c10.49,0,19.02,8.53,19.02,19.02v116.04c0,10.49-8.53,19.02-19.02,19.02h0ZM285.77,192.72c-5.77,0-10.45,4.69-10.45,10.45v116.04c0,5.77,4.69,10.45,10.45,10.45h223.47c5.77,0,10.45-4.69,10.45-10.45v-116.04c0-5.77-4.69-10.45-10.45-10.45h-223.47,0Z"/>
    <path class="st2" d="M353.03,192.72c-.19,0-.38-.01-.57-.04-2.34-.31-3.99-2.47-3.68-4.81l5.37-40.28c.28-2.13,2.1-3.71,4.24-3.71h78.24c2.15,0,3.96,1.59,4.24,3.71l5.37,40.28c.31,2.34-1.33,4.5-3.68,4.81s-4.5-1.33-4.81-3.68l-4.87-36.57h-70.74l-4.87,36.57c-.29,2.15-2.12,3.71-4.24,3.71h0Z"/>
    <path class="st2" d="M415.11,172.58h-33.25c-2.36,0-4.28-1.92-4.28-4.28s1.92-4.28,4.28-4.28h33.25c2.36,0,4.28,1.92,4.28,4.28s-1.92,4.28-4.28,4.28Z"/>
    <path class="st2" d="M398.48,321.22c-33.09,0-60.02-26.93-60.02-60.02s26.93-60.02,60.02-60.02,60.02,26.93,60.02,60.02-26.93,60.02-60.02,60.02ZM398.48,209.74c-28.37,0-51.46,23.08-51.46,51.46s23.08,51.46,51.46,51.46,51.46-23.08,51.46-51.46-23.08-51.46-51.46-51.46Z"/>
    <path class="st2" d="M334.49,172.58h-35.2c-2.36,0-4.28-1.92-4.28-4.28s1.92-4.28,4.28-4.28h35.2c2.36,0,4.28,1.92,4.28,4.28s-1.92,4.28-4.28,4.28Z"/>
  </g>
</svg>