<?xml version="1.0" encoding="UTF-8"?>
<svg id="_レイヤー_1" data-name="レイヤー_1" xmlns="http://www.w3.org/2000/svg" version="1.1" viewBox="0 0 841.89 595.28">
  <!-- Generator: Adobe Illustrator 29.8.1, SVG Export Plug-In . SVG Version: 2.1.1 Build 2)  -->
  <defs>
    <style>
      .st0 {
        fill: #e7d030;
        stroke: #231815;
        stroke-linecap: round;
        stroke-linejoin: round;
        stroke-width: 26.13px;
      }
    </style>
  </defs>
  <path class="st0" d="M625.97,341.99c-4.58-7.08-21.88-9.2-56.49-13.45-14.92-1.83-33.06-3.18-41.71-16.2-1.3-1.96-2.1-3.75-2.58-4.99-2.89-8.28.54-18.23-2.6-59.98-6.02-28.4-9.68-49.71-12-64.97-.23-1.51-4.64-30.44-17.91-41.07-4.73-3.79-10.19-5.41-10.19-5.41-2.24-.66-8.96-2.54-16.23.01-7.52,2.65-11.32,8.53-12.97,11.13-4.28,6.79-6.18,15.73-2.71,37.61,4.23,26.51,10.74,36.6,7.41,38.75-3.1,2-10.44-5.7-46.3-34.59-4.82-3.88-9.78-7.85-16.23-12.76-14.36-10.97-24.4-17.83-27-19.6-25.39-17.22-32.47-18.51-38.12-18.27-2.7.12-9,.47-14.82,4.71-4.81,3.51-6.85,7.89-7.29,8.91-1.73,3.88-1.78,7.15-1.8,10.04-.03,2.4-.06,8.64,3.43,15.27.83,1.59,2.03,3.52,6.24,8.14,7.34,8.06,14.05,13.51,16.47,15.46,7.26,5.86,12.3,9.3,16.55,12.37,9.81,7.08,29.65,23.68,29.16,24.28-.42.51-17.21-11.82-50.8-36.46-.19-.13-7.1-5.73-16.97-12.23-2.59-1.69-8.75-5.69-17.22-9.6-6.11-2.83-9.35-3.74-12.54-4.2-2.81-.41-6.44-.94-10.89.09-7.8,1.86-12.27,7.25-13.76,9.1-2.78,3.47-4.04,6.82-4.92,9.22-.78,2.11-1.81,4.95-2.08,8.86-.16,2.17-.44,6.85,1.83,12.01.46,1.05,1.9,4.1,6.21,8.39,5.33,5.29,10.6,8.05,13.48,9.58,7.33,3.93,14.07,8.86,21.18,13.15,6.58,3.95,29.43,17.71,46.42,30.48,1.86,1.41,3.32,2.52,3.25,2.62-.2.25-12.57-8.57-29.17-19.14-17.19-10.92-18.39-10.65-33.21-20.3-5.01-3.26-10.3-6.14-15.31-9.4-5.84-3.79-8.25-5.59-12.79-6.89-5.88-1.68-10.83-1.21-12.86-.94-6.98.95-11.64,3.99-12.52,4.58-1.94,1.29-9.14,6.11-11.06,15.33-1.68,7.91,1.58,14.3,2.82,16.73,2.06,4.04,4.5,6.41,9.08,10.82,2.7,2.61,6.03,5.19,12.73,10.35,3.32,2.55,6.2,4.77,10.23,7.68,4.66,3.36,8.81,6.13,11.26,7.71,8.5,5.52,14.1,7.68,21.35,11.81,19.37,11,34.28,21.56,34.18,21.7,0,.05-2-1.01-2-1.01-4.23-2.11-15.05-7.74-32.5-18.46-18.21-11.17-30.92-20.06-45.32-18.6-6.22.64-9.86,3.26-11.23,4.28-8.39,6.11-9.45,16.26-9.68,18.63-1.1,10.68,4.15,18.65,6.03,21.4,3.35,4.9,6.7,7.2,16.85,13.96,18.86,12.55,28.28,18.83,36.35,23.7,7.04,4.25,12.94,7.82,20.88,12.28,18.75,10.52,28.48,14.6,46.68,23.65,33.16,16.47,26.37,15.61,47.54,25.17,20.05,9.06,43.51,17.66,53.09,21.1,4.58,1.64,8.02,2.83,9.36,3.3,87.55,30.39,96.3,29.18,102.42,26.78,12.01-4.72,10.38-12.67,34.97-60.52,28.2-54.86,43.76-70.53,36.31-82.04Z"/>
</svg>