<svg xmlns="http://www.w3.org/2000/svg" id="_レイヤー_1" data-name="レイヤー_1" version="1.1" viewBox="0 0 841.89 595.28">
  
  <defs>
    </defs>
  <g>
    <path d="M498.13,270.54c-11.43-19.47-30.84-30.54-36.38-33.49-.34-.19-.67-.36-.99-.52-.52-.28-1.06-.55-1.62-.84-1.78-.89-3.27-1.63-4.55-2.24.05-.16.1-.31.15-.47,2.62-8.14,3.62-12.23,3.98-14.86,2.62-19.22-23.01-22.71-26.33-23.16-3.8-.52-14.51-1.73-18.96,6.12-1.97,3.84-8.54,23.73-10.14,28.35-3.3-1.24-6.04-1.6-9.24-2.02-5.42-.71-9.8-.51-12.3-.3-2.66.22-6,.69-9.79,1.69-.19-2.2-.66-12.9-.82-15.34-.46-3.69-1.64-12.79-16.12-14.76-9.25-1.26-29.5.1-31.76,16.7-1.13,8.3,2.02,27.82,3.36,37.44-7.34,6.01-33.58,28.3-38.94,67.69-5.23,38.44,13.85,59.89,37.81,63.15,18.27,2.49,35.21-6.57,44.28-12.83,1.15.4,1.87.49,3.29.69,1.52.21,26.94-3.33,29.8-20.11.37-2.15.62-6.02-1.39-11.07,8.14-10.09,21.83-29.56,35.66-61.75.11.12.2.2.25.25.36.35.76.67,1.54,1.31.92.74,1.74,1.37,1.95,1.52,8.69,7.1,18.61,16.01,15.67,37.65-2.17,15.9-13.78,35.59-40.07,40.47-15.12,2.78-22.8,4.15-24.9,19.57-1.16,8.54,1.72,24.65,15.96,26.58,7.12.97,88.36-1.03,99.14-80.28.67-4.97,5.65-30.93-8.57-55.14v.02Z" fill="#fff" />
    <path d="M410.69,409.87c-1.76,0-3-.07-3.63-.16-7.62-1.03-13.39-5.55-16.7-13.03-2.77-6.27-3.1-13.31-2.5-17.8.41-3.05,1.05-5.64,1.89-7.85-7.99,3.56-16,4.43-17.17,4.26-.79-.1-1.45-.19-2.11-.33-8.24,5.45-22.5,12.93-38.65,12.93-2.24,0-4.52-.14-6.82-.46-13.5-1.84-25.04-8.95-32.48-20.02-8.17-12.15-11.13-28.53-8.57-47.38,3.57-26.28,17.27-50.61,38.64-68.74-.08-.55-.16-1.12-.25-1.71-1.55-10.69-3.89-26.84-2.83-34.69,1.18-8.68,6.63-14.94,15.76-18.11,8.8-3.06,17.72-2.17,20.25-1.83,17.38,2.37,18.87,14.16,19.36,18.03,0,.08.02.16.02.24.06.97.17,3.22.29,5.74.08,1.67.17,3.54.26,5.19,1.98-.37,3.97-.63,5.96-.8,4.32-.36,8.74-.25,13.11.32,2.12.28,4.17.55,6.35,1.08.05-.13.09-.28.14-.41,3.53-10.45,7.43-21.85,9.04-24.98.02-.04.05-.09.07-.13,2.66-4.7,8.77-9.91,22.75-8,6.24.85,11.98,2.55,16.61,4.92,9.79,5.02,14.28,12.8,12.96,22.49-.39,2.88-1.39,6.81-3.28,12.86.53.26,1.09.54,1.65.82.58.29,1.15.58,1.7.88.29.15.63.33.99.52,7.6,4.05,26.5,15.56,37.86,34.9,9.33,15.9,12.42,34.93,9.19,56.55-.06.4-.11.74-.15,1.02-5.87,43.11-32.12,63.57-53.11,73.15-19.7,8.98-38.58,10.52-46.64,10.52h.02ZM437.16,274.84c1.03,0,2.02.42,2.74,1.18.06.07.11.11.13.13.23.22.55.48,1.29,1.09.9.73,1.66,1.31,1.79,1.41.05.04.11.08.16.13,8.1,6.62,20.34,16.62,17.02,41.08-2.29,16.88-14.96,38.44-43.12,43.67l-.12.02c-14.96,2.75-20,3.67-21.72,16.35-.9,6.6,1.03,20.74,12.73,22.33,2.5.34,24.1.29,46.12-9.76,28.03-12.78,44.44-35.43,48.77-67.31.04-.3.1-.67.16-1.12,2.97-19.87.19-37.23-8.24-51.61-10.38-17.69-27.87-28.32-34.9-32.06-.33-.18-.64-.34-.94-.49-.53-.28-1.04-.55-1.57-.81-1.65-.82-3.21-1.6-4.47-2.2-1.72-.81-2.56-2.77-1.98-4.58l.15-.46c2.24-6.95,3.45-11.47,3.83-14.22.87-6.4-2.05-11.23-8.92-14.75-2.7-1.39-7.35-3.23-14.18-4.16-7.82-1.06-12.9.34-15.13,4.17-1.52,3.03-6.27,17.09-8.57,23.87-.57,1.69-1.03,3.06-1.33,3.91-.33.97-1.04,1.75-1.96,2.18-.92.43-1.98.47-2.94.12-2.9-1.09-5.33-1.41-8.41-1.81-3.84-.5-7.71-.6-11.5-.28-3.07.25-6.14.79-9.13,1.58-1.08.28-2.23.07-3.14-.57-.91-.64-1.49-1.66-1.58-2.77-.12-1.4-.34-5.85-.53-9.78-.12-2.38-.22-4.52-.28-5.52-.44-3.49-1.36-9.81-12.87-11.38-4.34-.59-11.02-.51-16.76,1.48-6.44,2.24-9.96,6.16-10.75,12-.92,6.8,1.42,22.94,2.82,32.58.2,1.39.39,2.68.55,3.81.18,1.3-.33,2.62-1.35,3.45-21.13,17.29-34.13,39.87-37.59,65.28-5.34,39.27,15.29,56.28,34.58,58.9,17.41,2.38,33.56-6.62,41.63-12.19.99-.68,2.24-.85,3.38-.46.76.26,1.19.33,2.35.49,3.19-.15,23.59-4.06,25.79-16.98.48-2.83.08-5.86-1.18-9.03-.51-1.27-.29-2.71.57-3.77,8.77-10.87,21.97-30.25,35.14-60.88.5-1.17,1.56-2,2.81-2.23.22-.04.44-.06.66-.06h0ZM373.53,367.81s.05,0,.07,0c-.02,0-.04,0-.07,0ZM405.75,341.08c1.18,3.75,1.46,7.44.85,10.99-.4,2.39-1.18,4.54-2.21,6.48,3.35-.97,7.13-1.66,11.29-2.44l.11-.02c24.16-4.49,34.96-22.2,37.01-37.26,2.74-20.18-6.62-27.93-14.21-34.13-12.19,27.34-24.29,45.48-32.86,56.37h0Z" fill="#231815" />
  </g>
  <g>
    <path d="M686.24,217.37c-3.27-.04-6.7-.06-13.6.54-7.67.67-7.78,1.06-14.92,1.62-4.91.39-5.39.24-12.75.77-2.84.2-5.31.41-10.12.83-1.92.16-6.85.59-15.73,1.42-5.18.49-12.47,1.18-16.34,1.57-19.88,2.02-24.05,3.32-40.31,4.93-15.84,1.57-22.32,1.72-26.1-2.56-2.44-2.76-1.01-4.26-4.14-18.61-2.87-7.97-4.77-14-6.05-18.33-.13-.43-2.56-8.62-6.74-11.15-1.49-.9-3.09-1.14-3.09-1.14-.66-.1-2.63-.36-4.58.69-2.01,1.09-2.85,2.95-3.2,3.77-.93,2.15-1.1,4.82.78,11.01,2.28,7.51,4.53,10.15,3.68,10.92-.79.71-3.18-1.21-14.48-8.07-1.52-.92-3.08-1.87-5.1-3.02-4.5-2.58-7.62-4.14-8.43-4.54-7.88-3.92-9.92-3.99-11.5-3.69-.76.15-2.52.52-3.99,1.99-1.21,1.22-1.61,2.58-1.69,2.89-.33,1.19-.21,2.14-.1,2.99.09.7.34,2.5,1.6,4.29.3.43.72.94,2.09,2.09,2.41,2.02,4.52,3.33,5.28,3.78,2.29,1.39,3.85,2.17,5.18,2.89,3.06,1.64,9.34,5.61,9.22,5.81-.1.16-5.34-2.7-15.83-8.43-.06-.03-2.23-1.36-5.29-2.83-.8-.38-2.7-1.28-5.25-2.05-1.84-.56-2.8-.69-3.72-.69-.81,0-1.86,0-3.06.49-2.13.87-3.17,2.62-3.51,3.21-.64,1.12-.85,2.15-1.01,2.88-.13.64-.31,1.51-.22,2.65.05.64.16,2,1.01,3.4.17.28.7,1.11,2.09,2.17,1.72,1.31,3.32,1.88,4.2,2.21,2.23.83,4.33,1.98,6.52,2.91,2.02.87,9.04,3.89,14.35,6.88.58.33,1.04.59,1.02.62-.05.08-3.9-1.96-9.01-4.32-5.29-2.44-5.63-2.32-10.21-4.49-1.55-.73-3.15-1.35-4.71-2.08-1.8-.85-2.56-1.27-3.9-1.46-1.72-.24-3.1.1-3.66.27-1.93.57-3.12,1.64-3.35,1.86-.49.46-2.32,2.16-2.5,4.91-.15,2.37,1.03,4.08,1.48,4.73.75,1.09,1.54,1.66,3,2.76.86.64,1.92,1.25,4.02,2.47,1.04.6,1.95,1.12,3.2,1.79,1.45.77,2.74,1.4,3.49,1.76,2.63,1.24,4.29,1.63,6.51,2.53,5.92,2.37,10.56,4.8,10.54,4.85,0,.01-.61-.21-.61-.21-1.27-.43-4.56-1.61-9.93-3.98-5.6-2.47-9.55-4.51-13.55-3.48-1.72.45-2.65,1.36-3,1.71-2.12,2.13-2,5.11-1.97,5.81.13,3.14,1.93,5.23,2.59,5.95,1.15,1.28,2.18,1.81,5.33,3.33,5.84,2.84,8.75,4.26,11.23,5.34,2.16.94,3.97,1.72,6.39,2.68,5.73,2.26,8.63,3.03,14.14,4.89,10.03,3.37,8.09,3.41,14.45,5.29,6.03,1.78,13,3.28,15.85,3.87,1.36.28,2.04.43,2.77.56,7.93,1.36,14.68,1,19.21.44l31.97-3.06s.02-.03.04-.04l8.82-.9c.04.12.07.23.1.35-1.09,1.19-2.2,2.46-3.33,3.82-16.52,19.77-18.99,39.23-19.12,51.91-.71,68.64,69.39,81.6,85.25,81.77,23.11.24,24.08-27.39,24.1-30.11.14-13.59-8-15.49-19.98-18.1-21.04-4.76-30.57-12.62-34.81-20.78-3.51-6.73-3.42-13.31-3.31-16.55,0,0,.49-14.07,10.18-25.01,1.78-2.01,9.22-9.54,9.22-9.54h0c3.02-2.68,7.01-5.85,11.98-8.98,2.81-1.76,8.84-5.52,16.82-8.3,6.79-2.38,8.31-1.72,28.73-5.37,10.55-1.89,13.56-2.71,16.34-5.57,2.86-2.95,4.65-7.5,4.72-14.6.16-16.31-6.53-25.67-21.71-25.83h.03Z" fill="#fff" />
    <path d="M644.26,409.88h-.34c-18.98-.19-89.71-15.3-88.98-85.58.2-19.42,5.97-36.25,17.62-51.35h0l-31.93,3.06c-6.82.82-13.63.67-20.25-.48-.6-.1-1.17-.22-2.07-.41l-.83-.17c-3.49-.73-10.24-2.21-16.15-3.95-3.33-.98-4.58-1.51-6.17-2.2-1.53-.65-3.44-1.47-8.42-3.14-1.6-.54-2.98-.98-4.28-1.4-3.16-1.02-5.9-1.9-10.05-3.54-2.47-.97-4.34-1.78-6.5-2.72-2.56-1.11-5.52-2.55-11.39-5.41-3.21-1.57-4.83-2.35-6.5-4.22-2.23-2.49-3.42-5.29-3.54-8.32-.17-4.41,1.57-7.12,3.06-8.62.19-.19.51-.52,1-.89-.46-.29-.85-.56-1.24-.85-1.6-1.19-2.77-2.05-3.87-3.65-.58-.85-2.37-3.43-2.14-7.1.12-1.94.85-4.81,3.69-7.44.75-.7,2.36-1.97,4.79-2.7-.26-1-.32-1.81-.35-2.24-.12-1.69.15-3,.29-3.69.18-.88.49-2.35,1.43-3.99,1.32-2.29,3.12-3.92,5.36-4.83,1.9-.77,3.53-.77,4.5-.77s1.96.12,3.12.39c-.08-.43-.13-.77-.16-1-.13-1.01-.32-2.54.2-4.46.26-.97.96-2.85,2.66-4.56,2.32-2.33,5.04-2.86,5.93-3.03,2.79-.55,5.7-.07,13.91,4.01,1.45.72,4.5,2.29,8.62,4.65,2.12,1.21,3.79,2.22,5.19,3.06,2.33,1.42,4.29,2.62,5.93,3.63-.23-.67-.46-1.39-.7-2.16-1.93-6.37-2.11-10.18-.64-13.6.41-.96,1.67-3.87,4.87-5.6,2.05-1.11,4.38-1.48,6.92-1.1.4.06,2.46.41,4.5,1.64,5.02,3.03,7.7,10.95,8.4,13.29,1.69,5.68,3.65,11.61,5.99,18.13.05.16.1.31.13.47,1.4,6.44,1.91,10.36,2.25,12.96.41,3.16.49,3.33,1.03,3.95,2.48,2.81,7.89,2.79,22.9,1.3,7.77-.77,12.78-1.47,18.07-2.22,5.84-.82,11.88-1.66,22.23-2.72,3.9-.4,11.21-1.09,16.37-1.57,8.74-.82,13.59-1.24,15.65-1.42h.1c4.88-.43,7.34-.64,10.18-.85,3.86-.28,5.83-.37,7.56-.45,1.53-.07,2.86-.13,5.16-.31,3.54-.28,5.3-.52,7.16-.76,1.9-.25,3.87-.52,7.73-.85,7.19-.62,10.79-.58,13.96-.55h0c16.61.17,25.64,10.7,25.45,29.64-.08,7.63-1.97,13.26-5.78,17.19-3.63,3.75-7.47,4.71-18.38,6.65-8.13,1.45-13.23,2.23-16.96,2.79-5.55.84-7.42,1.12-11.19,2.44-7.73,2.71-13.57,6.37-16.06,7.94-4.02,2.53-7.85,5.4-11.41,8.54-1.05,1.06-7.47,7.58-8.99,9.3-8.63,9.73-9.23,22.51-9.23,22.64-.09,2.56-.29,8.57,2.88,14.66,4.59,8.8,15.15,14.96,32.3,18.84,11.86,2.59,23.09,5.04,22.92,21.83-.13,12.61-6.1,33.85-27.58,33.85v.04ZM581.06,264.48c1.6,0,3.06,1.03,3.57,2.58.07.21.13.43.19.64.31,1.23-.02,2.53-.88,3.45-1.06,1.17-2.15,2.41-3.22,3.69-12.08,14.45-18.04,30.66-18.24,49.53-.29,27.82,11.35,49.13,34.6,63.3,19.39,11.82,40.43,14.59,46.91,14.66,19.43.2,20.26-23.66,20.28-26.38.1-10.12-4.29-11.6-17.01-14.38-19.48-4.41-31.69-11.83-37.36-22.72-4.1-7.86-3.84-15.53-3.73-18.42.02-.63.65-15.56,11.14-27.38,1.12-1.26,7.52-7.87,9.26-9.58.1-.1.2-.21.31-.31,3.88-3.43,8.07-6.57,12.45-9.33,2.71-1.7,9.05-5.69,17.59-8.67,4.44-1.55,6.81-1.91,12.56-2.77,3.68-.55,8.73-1.32,16.76-2.75,10.24-1.84,12.38-2.5,14.29-4.47,2.41-2.48,3.6-6.41,3.66-12.02.2-19.57-10.16-21.93-17.98-22.02-3.15-.03-6.41-.07-13.23.52-3.67.31-5.55.57-7.37.81-1.97.26-3.83.51-7.57.81-2.43.19-3.81.25-5.4.33-1.69.08-3.61.17-7.38.44-2.78.2-5.1.4-10.06.82h-.1c-2.06.19-6.89.61-15.6,1.42-5.14.48-12.43,1.18-16.31,1.57-10.21,1.03-16.18,1.87-21.94,2.68-5.37.76-10.45,1.47-18.38,2.25-15.67,1.55-24.09,2.08-29.3-3.82-2.14-2.42-2.41-4.51-2.86-7.97-.31-2.44-.79-6.1-2.08-12.09-2.36-6.57-4.34-12.56-6.04-18.3-1.05-3.51-3.18-7.85-5.07-8.99-.65-.4-1.47-.59-1.73-.64-.3-.04-1.32-.19-2.2.28-.9.49-1.3,1.43-1.53,1.94-.49,1.15-.73,2.97.93,8.42,1.03,3.39,2.04,5.69,2.77,7.37,1.02,2.33,2.29,5.24-.17,7.46-2.35,2.12-5.19.64-6.13.16-1.2-.62-2.83-1.63-5.53-3.31-1.89-1.17-4.28-2.66-7.31-4.5-1.42-.86-2.97-1.8-5.02-2.97-3.95-2.26-6.86-3.75-8.24-4.44-7.41-3.69-8.68-3.44-9.1-3.36-.44.09-1.36.26-2.03.95-.53.53-.71,1.15-.73,1.22-.13.46-.09.82,0,1.52.05.42.19,1.54.94,2.59.09.13.29.42,1.44,1.38,1.5,1.26,3.12,2.42,4.8,3.44,1.8,1.09,3.12,1.78,4.27,2.4l.73.39c1.72.92,4.2,2.42,5.94,3.52,3.78,2.38,4.7,3,5.14,4.59.28.99.13,2.06-.39,2.95-.82,1.41-2.53,2.74-5.98,1.01-.69-.34-1.72-.88-3.07-1.61-2.65-1.42-6.5-3.52-11.84-6.44-.04-.02-.14-.08-.18-.1-.69-.41-2.55-1.48-4.94-2.64-.58-.28-2.33-1.12-4.72-1.85-1.59-.49-2.17-.52-2.62-.52-.62,0-1.11,0-1.63.21-.97.4-1.49,1.3-1.66,1.6-.34.59-.46,1.16-.58,1.76-.1.48-.2.97-.16,1.62.03.4.07,1.06.47,1.72.05.07.32.49,1.15,1.12,1.22.93,2.38,1.36,3.14,1.64l.1.04c1.49.55,2.88,1.21,4.23,1.85.85.4,1.66.78,2.46,1.13,7.54,3.24,12.16,5.62,14.71,7.05.33.19.62.35.83.48,2.67,1.6,2.26,4.11,1.67,5.22-.29.54-1.9,3.12-5.51,1.39-.36-.17-.88-.43-1.54-.75-1.61-.79-4.05-2-6.88-3.3-2.51-1.15-3.84-1.71-5.13-2.24-1.38-.57-2.68-1.11-5.11-2.26-.71-.34-1.45-.65-2.24-.99-.8-.34-1.63-.7-2.47-1.09l-.62-.3c-1.34-.64-1.63-.76-2.17-.84-.93-.13-1.71.04-2.08.15-1.09.32-1.77.93-1.84,1-.31.28-1.22,1.13-1.3,2.38-.07,1.06.51,1.9.82,2.35.37.54.79.85,2.14,1.87.7.52,1.69,1.09,3.66,2.23,1,.58,1.87,1.08,3.09,1.73,1.66.88,2.97,1.51,3.33,1.68,1.48.7,2.62,1.09,3.83,1.52.77.27,1.57.55,2.48.91,11.73,4.7,12.23,5.94,12.63,6.94.37.94.37,1.99-.03,2.91-.24.55-1.61,3.22-5.34,1.85-1.94-.67-5.28-1.91-10.18-4.08l-1.51-.67c-4.61-2.05-7.33-3.19-9.58-2.61-.73.19-1.08.53-1.27.72-.43.43-.94,1.31-.87,2.99.07,1.85,1.24,3.15,1.63,3.58.61.67,1.07.95,4.17,2.46,5.78,2.82,8.68,4.23,11.08,5.27,2.11.91,3.93,1.7,6.28,2.63,3.93,1.55,6.43,2.36,9.6,3.39,1.32.43,2.73.88,4.36,1.43,5.26,1.77,7.32,2.65,8.97,3.35,1.47.62,2.44,1.04,5.34,1.9,5.65,1.67,12.17,3.09,15.55,3.8l.85.17c.78.16,1.27.27,1.8.36,5.92,1.02,12.01,1.16,18.11.42.03,0,.07,0,.1,0l31.5-3.02c.16-.04.32-.07.49-.08l8.82-.9c.13-.01.25-.02.39-.02h0Z" fill="#231815" />
  </g>
  <g>
    <path d="M329.65,347.3c-5.61-.76-4.3-10.32-3.76-14.28,1.48-10.87,4.77-17.81,8.11-25.07,4.44,16.71,9.61,30.51,11.19,33.74-2.2,1.38-9.93,6.37-15.53,5.61h0Z" fill="#f1d824" />
    <path d="M330.86,351.15c-.58,0-1.16-.04-1.72-.11h0c-2.45-.33-6.68-1.99-7.43-9.29-.35-3.42.14-7.06.43-9.23,1.51-11.12,4.88-18.44,8.14-25.52l.28-.62c.67-1.45,2.17-2.32,3.75-2.19,1.59.13,2.91,1.25,3.33,2.8,4.41,16.61,9.54,30.19,10.93,33.06.85,1.73.25,3.83-1.39,4.85l-.22.13c-4.29,2.7-10.45,6.13-16.1,6.13h0ZM333.26,319.17c-1.56,4.13-2.86,8.68-3.63,14.36-.25,1.84-.67,4.91-.4,7.43.1.93.4,2.51.94,2.59h0c1.63.22,4.68-.25,10.26-3.41-1.74-4.35-4.43-11.91-7.16-20.98h0Z" fill="#231815" />
  </g>
  <g>
    <path d="M375.6,300.15c-2.76-9.48-7.07-21.09-5.81-23.24,1.25-2.16,6.16-2.56,10.9-3.24,8.18-1.18,19.45.64,19.27,2.12-2.85,1.55-12.86,9-14.78,11.07-1.93,2.07-6.83,7.85-9.55,13.29h0Z" fill="#f1d824" />
    <path d="M375.6,303.92c-.11,0-.22,0-.34-.01-1.54-.14-2.85-1.21-3.28-2.71-.69-2.38-1.49-4.92-2.27-7.39-3.75-11.91-4.82-15.99-3.18-18.8,2.03-3.5,6.86-4.15,11.97-4.85.55-.07,1.1-.15,1.65-.23,6.67-.96,19.24-.18,22.28,2.8.97.95,1.42,2.23,1.27,3.52-.15,1.21-.88,2.26-1.94,2.85-2.56,1.39-12.25,8.63-13.83,10.33-2.05,2.2-6.55,7.62-8.94,12.41-.64,1.29-1.96,2.09-3.37,2.09h0ZM373.38,278.81c.31,2.44,2.11,8.2,3.41,12.35,2.1-2.88,4.23-5.39,5.61-6.86,1.27-1.36,5.04-4.34,8.67-7.01-3.06-.27-6.68-.32-9.85.13-.57.08-1.14.16-1.71.24-1.86.25-4.79.65-6.13,1.16h0ZM372.82,279.08h0Z" fill="#231815" />
  </g>
  <g>
    <path d="M270.77,339.71c-2.38-1.7-12.6-9.23-31.68-16.13,0-.37-.29-14.17-.41-20.91,4.33.09,8.03-.28,11.26-.6,3.18-.31,5.74-.58,9.13-1.54,4.6-1.3,8.4-2.36,11.44-5.33,5.46-5.34,5.03-13.47,4.86-16.7-.18-3.45-.58-10.99-6.16-15.41-3.16-2.5-6.57-2.88-10.99-3.38-6.76-.76-9.91.65-16.88,1.12-1.03.07-2.21.12-3.52.13l-.11-9.48c14.38-1.05,29-2.09,29.2-21.25.05-4.79-1.21-22.29-20.84-22.49-5.51-.06-33.07,1.57-39.3,1.75-13.41.34-16.53.31-44.07.02-5.99-.06-24.9-.26-25.13,21.3-.02,2.25-.16,9.76,4.67,15.36,4.92,5.7,12.26,6.29,26.71,7.24,8.92.58,16.35.21,21.56-.25.59,2.25,1.24,5.02,1.8,8.21-.95.05-1.97.1-3.09.13-3.26.1-8.65-.15-19.42-.65-13.29-.62-16.34-1.09-22.29,0-5.53,1.02-9.38,1.78-12.77,5-5.61,5.33-5.6,13.23-5.59,16.13,0,2.27.31,11.86,6.91,18.24,2.01,1.94,5.9,4.84,33.75,5.13,5.1.05,11.33-.29,21.67-1.01-.67,4.01-1.32,7.2-1.7,8.99-3.63-1.54-7.31-1.58-9.2-1.6-15.23-.16-30.27,4.65-41.15,15.41-.63.53-1.29,1.24-1.29,1.24-1.09,1.16-2.03,2.15-2.83,3-2.95-3.59-7.59-5.36-10.92-5.39-3.11-.03-4.56.67-6,1.61-.13-32.81,2.48-54.1,7.59-84.94.52-3.35,4.08-23.66,4.09-25.1.13-12.69-11.78-18.56-24.23-18.69-20.11-.21-22.89,13.17-25.16,24.17-7.4,35.86-6.94,53.55-6.94,53.55-1.92,38.14-1.82,34.63-1.91,37.6,0,0-2.19,41.42,6.68,71.67,1.62,5.52,5.31,19.21,23.27,19.4,15.56.16,18.54-9.63,21.03-18.7,1.24-4.35,3.07-10.72,4.84-16.48,1.35,3.65,2.92,6.23,4.2,8.29.81,1.31,2,3.24,3.37,5.06,12.07,17.68,35.39,22.55,50.86,22.71,20.11.21,44.85-6.24,50.63-33,16.68,8.32,18.34,9.29,23.13,9.34,13.41.14,21.21-13.67,21.33-24.44.07-6.47-2.03-12.24-10.35-18.31l-.03-.02Z" fill="#fff" />
    <path d="M186.93,409.9h-.95c-8.8-.09-38.69-2.11-53.89-24.29-1.45-1.94-2.69-3.94-3.51-5.27-.02-.04-.05-.08-.07-.13-.79,2.72-1.53,5.28-2.12,7.36-2.34,8.54-5.88,21.45-24.29,21.45h-.41c-20.46-.21-25.04-15.92-26.77-21.83l-.08-.28c-8.89-30.33-6.95-70.68-6.83-72.9.04-1.24.05-1.37.19-3.96.19-3.47.62-11.59,1.72-33.54-.03-1.95-.11-19.72,7.01-54.26,2.26-10.92,5.66-27.43,28.89-27.18,7.29.07,14.01,1.96,18.92,5.29,5.99,4.08,9.13,10.03,9.05,17.22,0,1-.61,4.74-2.88,18.16-.58,3.43-1.09,6.4-1.25,7.47-4.93,29.76-7.4,49.83-7.55,79.08.69-.07,1.44-.11,2.27-.1,3.12.03,7.25,1.25,10.71,3.84.08-.09.17-.18.25-.27.08-.08.76-.79,1.48-1.42,8-7.87,18.45-13.1,30.25-15.27-25.62-.43-30.58-3.16-33.68-6.16-7.25-7.01-8.05-16.98-8.06-20.94,0-3.07-.02-12.42,6.77-18.88,4.28-4.06,9.1-4.95,14.69-5.97,4.65-.85,7.64-.83,13.98-.52-9.94-.85-16.56-2.33-21.42-7.97-5.7-6.62-5.61-15.02-5.58-17.79v-.08c.14-13.38,6.9-19.42,12.55-22.12,6.29-3.02,13.11-2.94,16.4-2.91,27.69.28,30.58.31,43.93-.02,2.41-.07,8.31-.37,14.56-.69,10.04-.52,21.42-1.1,24.87-1.06,12.24.13,18.22,6.31,21.07,11.47,3.24,5.87,3.54,12.33,3.51,14.83-.22,20.82-15.47,23.58-29.16,24.71l.02,2.06c2.14-.16,3.91-.41,5.62-.66,3.42-.49,6.65-.95,11.48-.41,4.77.54,8.89,1,12.9,4.17,6.93,5.48,7.4,14.37,7.59,18.17.19,3.57.68,13.08-5.99,19.6-3.72,3.64-8.25,4.92-13.05,6.26-3.77,1.06-6.68,1.35-9.77,1.66-2.23.22-4.84.48-7.79.58.07,3.32.14,7.21.21,10.43.04,1.8.07,3.12.08,4.08,11.61,4.39,21.67,9.62,29.94,15.56l.24.17c8.32,6.07,11.99,12.67,11.9,21.39-.13,11.92-8.91,28.37-25.14,28.18-5.2-.05-7.45-1.09-20.64-7.67-3.47,10.92-10.4,19.15-20.65,24.52-10.68,5.59-22.87,6.82-31.53,6.82h-.01ZM127.27,358.27l3.87,10.48c1.25,3.38,2.76,5.83,3.87,7.61.76,1.23,1.91,3.09,3.18,4.78l.1.13c3.32,4.86,16.57,20.73,47.78,21.06,15.06.13,41.18-3.54,46.91-30.03l1.03-4.75,7.09,3.54c14.04,7.01,15.19,7.54,18.75,7.58,11.14.07,17.43-12.17,17.51-20.71.05-5.24-1.42-9.83-8.79-15.21l-.2-.15c-8.29-5.95-18.56-11.16-30.55-15.5l-2.52-.91.03-2.68c0-.28-.06-3.01-.13-6.53-.1-4.59-.22-10.51-.28-14.26l-.07-3.92,3.92.07c4.12.08,7.67-.27,10.81-.58,2.98-.3,5.34-.53,8.48-1.42,4.34-1.22,7.47-2.1,9.82-4.39,4.23-4.14,3.88-10.92,3.73-13.81-.16-3.01-.49-9.28-4.74-12.64-2.32-1.83-5-2.13-9.07-2.59-3.86-.43-6.38-.07-9.56.38-1.88.27-4.01.58-6.65.75-1.22.08-2.48.13-3.74.13l-3.76.03-.2-16.79,3.54-.25c15.85-1.15,25.55-2.62,25.7-17.53.02-1.9-.19-6.8-2.57-11.1-2.78-5.03-7.53-7.5-14.54-7.58-3.22-.03-14.96.57-24.41,1.05-6.57.34-12.24.63-14.75.7-13.5.34-16.4.31-44.21.02-2.71-.03-8.34-.09-13.05,2.17-5.48,2.62-8.18,7.66-8.26,15.38v.08c-.02,2.06-.09,8.32,3.75,12.78,3.82,4.44,10.15,5.02,24.1,5.93,6.98.46,14.04.37,20.97-.25l3.18-.28.81,3.08c.73,2.77,1.36,5.63,1.87,8.51l.74,4.2-4.26.23c-.97.05-2.02.1-3.18.13-3.41.1-8.86-.15-19.72-.65-2.44-.11-4.52-.22-6.35-.31-7.97-.41-10.66-.55-15.08.26-5.4.99-8.33,1.62-10.85,4.02-4.44,4.21-4.42,10.88-4.41,13.38,0,2.35.43,10.39,5.76,15.53.97.94,3.92,3.79,31.17,4.08,5.05.05,11.41-.31,21.36-1l4.78-.33-.79,4.72c-.66,3.91-1.3,7.13-1.73,9.14l-.95,4.48-4.22-1.79c-2.94-1.25-6.08-1.28-7.77-1.3-15.3-.16-28.95,4.93-38.45,14.32l-.21.19c-.37.32-.85.79-1,.95-1.09,1.15-2.02,2.14-2.82,2.99l-2.94,3.14-2.74-3.32c-2.14-2.6-5.67-3.99-8.04-4.01-2.32-.02-3.06.45-3.9,1l-5.81,3.78-.03-6.93c-.13-32.73,2.35-53.68,7.64-85.58.16-1.09.65-3.94,1.27-7.55,1-5.85,2.65-15.6,2.78-17.06.02-4.57-1.91-8.21-5.75-10.82-3.69-2.51-8.93-3.92-14.75-3.99-17.02-.14-19.16,10.18-21.42,21.15-7.2,34.89-6.86,52.51-6.86,52.69v.28c-1.11,22.06-1.54,30.21-1.73,33.7-.13,2.5-.14,2.61-.18,3.84v.07c-.02.4-2.05,41.14,6.53,70.42l.08.29c1.66,5.68,4.74,16.25,19.6,16.4,12.07.11,14.61-5.93,17.35-15.92,1.25-4.41,3.11-10.84,4.87-16.59l3.28-10.69h.03ZM186.5,308.43c.11.02.23.04.34.07,0-.03.02-.06.02-.09-.12,0-.24.01-.36.02ZM178.82,257.46c4.06.18,6.87.27,8.89.26-.05-.19-.08-.38-.13-.58-2.91.19-5.84.3-8.77.31h0ZM126.25,217.49h0s0,0,0,0Z" fill="#231815" />
  </g>
  <g>
    <path d="M193.49,363.45c-2.94,3.27-7.55,3.03-11.79,2.84-8.56-.39-21.37-4.29-21.3-10.73.08-8.08,9.79-8.79,16.66-9.12.31.63,2.41-.25,6.43.25,2.19.28,5.59.66,8.43,3.03,2.35,1.96,3.42,4.53,3.93,6.41.04,1.58-.13,4.83-2.36,7.31h0Z" fill="#f1d824" />
    <path d="M184.85,370.17c-1.12,0-2.23-.05-3.27-.1-5.16-.23-10.84-1.51-15.26-3.4-8.09-3.46-9.74-7.97-9.7-11.14.12-11.88,13.72-12.54,20.25-12.85l2.47-.12.12.25c1.12-.06,2.65-.07,4.5.16h.14c2.47.32,6.61.84,10.24,3.88,2.46,2.05,4.24,4.93,5.16,8.32l.12.44v.46c.1,3.96-1.05,7.4-3.32,9.91-3.21,3.57-7.48,4.19-11.44,4.19h0ZM176.33,350.26c-10.11.58-12.13,2.41-12.17,5.34-.03,2.61,8.72,6.5,17.7,6.92,4.3.19,7.2.19,8.8-1.6h0c1.08-1.21,1.37-2.89,1.39-4.24-.53-1.71-1.4-3.06-2.59-4.05-1.93-1.62-4.38-1.92-6.33-2.17h-.14c-1.74-.23-3.06-.13-4.02-.07-.65.04-1.66.12-2.66-.13h0Z" fill="#231815" />
  </g>
  <g>
    <path d="M770.99,378.9c-.16,16.24-13.58,28.4-29.07,28.24-15.74-.16-28.41-12.84-28.24-28.83.16-16.24,13.59-28.64,28.83-28.48,15.25.16,28.65,12.35,28.48,29.08h0Z" fill="#fff" />
    <path d="M742.22,410.65h-.34c-17.67-.18-31.89-14.71-31.71-32.37.09-8.7,3.58-16.82,9.83-22.87,6.14-5.94,14.16-9.19,22.55-9.08,8.46.09,16.43,3.4,22.45,9.34,6.22,6.13,9.59,14.4,9.5,23.29-.18,17.55-14.63,31.7-32.27,31.7h0ZM742.21,353.33c-6.45,0-12.6,2.52-17.34,7.11-4.89,4.74-7.62,11.09-7.7,17.91-.14,14.04,10.73,25.14,24.77,25.29h.27c13.82,0,25.13-11.05,25.27-24.77.07-6.97-2.56-13.44-7.41-18.22-4.72-4.65-10.97-7.25-17.6-7.32h-.25,0Z" fill="#231815" />
  </g>
  <g>
    <path d="M763.96,336.11c-1.15,8.99-3.03,11.62-5.19,14.78-3.43-1.36-6.33-2.45-14.01-2.53-7.41-.07-10.34.95-14.06,2.24-1.56-2.67-3.65-5.86-4.62-14.87l-8.96-80.59.43-41.57c.07-6.62.55-27.01,28.61-26.71,18.8.19,29.04,8.24,28.84,27.31l-.43,41.57-10.63,80.39h0Z" fill="#fff" />
    <path d="M760.2,355.51l-2.81-1.12c-3.08-1.22-5.52-2.19-12.66-2.26-6.71-.07-9.22.8-12.71,2l-3,1.03-1.77-3.01c-1.64-2.79-3.9-6.61-4.91-16.04l-8.98-80.81.43-41.8c.04-3.29.11-11,4.37-17.89,5.23-8.47,14.68-12.69,28.06-12.56,10.68.11,18.55,2.59,24.04,7.55,5.78,5.22,8.65,13.15,8.54,23.57l-.43,41.8-10.66,80.61c-1.25,9.73-3.41,12.9-5.7,16.25l-1.81,2.66h0ZM744.01,344.58h.8c6.02.06,9.37.7,12.44,1.72,1.23-2.15,2.23-4.9,2.97-10.66h0s10.6-80.18,10.6-80.18l.43-41.34c.08-8.27-1.9-14.13-6.05-17.89-4.01-3.63-10.42-5.52-19.06-5.61-24.57-.24-24.73,16.62-24.8,22.97l-.43,41.34,8.93,80.37c.6,5.58,1.6,8.58,2.65,10.73,2.81-.84,6.02-1.45,11.51-1.45h0Z" fill="#231815" />
  </g>
  <path d="M348.45,251.85s.1-7.37,6.46-8.53c6.37-1.16,9.85,5.55,9.85,5.55" stroke="#231815" stroke-linecap="round" stroke-linejoin="round" stroke-width="10.45px" fill="#fff" />
  <path d="M417.18,246.46s2.23-7.01,8.66-6.28c6.43.73,7.82,8.17,7.82,8.17" stroke="#231815" stroke-linecap="round" stroke-linejoin="round" stroke-width="10.45px" fill="#fff" />
</svg>