<?xml version="1.0" encoding="UTF-8"?>
<svg id="_レイヤー_1" data-name="レイヤー_1" xmlns="http://www.w3.org/2000/svg" version="1.1" viewBox="0 0 850.39 850.39">
  <!-- Generator: Adobe Illustrator 29.8.2, SVG Export Plug-In . SVG Version: 2.1.1 Build 3)  -->
  <g>
    <path d="M416.84,785.24H104.58c-45.88,0-83.21-37.34-83.21-83.21V106.06c0-45.88,37.34-83.21,83.21-83.21h453.22c45.88,0,83.21,37.34,83.21,83.21v255.62c0,5.01-4.07,9.08-9.08,9.08s-9.08-4.07-9.08-9.08V106.06c0-35.88-29.18-65.06-65.06-65.06H104.58c-35.88,0-65.06,29.18-65.06,65.06v595.97c0,35.88,29.18,65.06,65.06,65.06h312.26c5.01,0,9.08,4.07,9.08,9.08s-4.07,9.08-9.08,9.08h0Z" style="fill: #040000; stroke: #070001; stroke-miterlimit: 10; stroke-width: 5.83px;"/>
    <path d="M283.76,634.46H119.53c-5.01,0-9.08-4.07-9.08-9.08s4.07-9.08,9.08-9.08h164.23c5.01,0,9.08,4.07,9.08,9.08s-4.07,9.08-9.08,9.08Z" style="fill: #040000; stroke: #070001; stroke-miterlimit: 10; stroke-width: 5.83px;"/>
    <path d="M327.21,492.43H119.55c-5.01,0-9.08-4.07-9.08-9.08s4.07-9.08,9.08-9.08h207.67c5.01,0,9.08,4.07,9.08,9.08s-4.07,9.08-9.08,9.08Z" style="fill: #040000; stroke: #070001; stroke-miterlimit: 10; stroke-width: 5.83px;"/>
    <path d="M327.21,334.26H119.55c-5.01,0-9.08-4.07-9.08-9.08s4.07-9.08,9.08-9.08h207.67c5.01,0,9.08,4.07,9.08,9.08s-4.07,9.08-9.08,9.08Z" style="fill: #040000; stroke: #070001; stroke-miterlimit: 10; stroke-width: 5.83px;"/>
    <path d="M545.29,172.33H119.55c-5.01,0-9.08-4.07-9.08-9.08s4.07-9.08,9.08-9.08h425.74c5.01,0,9.08,4.07,9.08,9.08s-4.07,9.08-9.08,9.08h0Z" style="fill: #040000; stroke: #070001; stroke-miterlimit: 10; stroke-width: 5.83px;"/>
    <g>
      <g>
        <path d="M758.05,794.46c-3.14,0-6.18-1.62-7.87-4.54-2.51-4.33-1.03-9.9,3.33-12.4,21.87-12.65,39.41-31.17,50.7-53.6,19.84-39.22,18.57-85.33-3.41-123.36l-84.61-146.36c-2.51-4.33-1.03-9.9,3.33-12.4,4.33-2.51,9.9-1.03,12.4,3.33l84.61,146.36c25.05,43.35,26.51,95.93,3.9,140.63-12.88,25.57-32.88,46.72-57.83,61.14-1.44.82-3,1.21-4.54,1.21h-.02Z" style="fill: #040000; stroke: #070001; stroke-miterlimit: 10; stroke-width: 5.83px;"/>
        <path d="M648.41,828.84c-67.96,0-133.04-41.26-224.69-115.72-37.01-30.09-26.76-52.64-22.75-58.82,14.72-22.69,65.57-27.46,134.23,7.31,4.48,2.26,6.26,7.74,4,12.2-2.28,4.48-7.74,6.26-12.2,4-61.4-31.11-102.4-26.53-110.77-13.64-5.01,7.72,2.44,21.4,18.98,34.83,139.32,113.2,208.34,142.07,318.34,78.49,4.33-2.51,9.9-1.03,12.4,3.33,2.51,4.33,1.03,9.9-3.33,12.4-41.73,24.13-78.37,35.59-114.18,35.59l-.02.02Z" style="fill: #040000; stroke: #070001; stroke-miterlimit: 10; stroke-width: 5.83px;"/>
        <path d="M531.1,678.8c-3.14,0-6.18-1.62-7.87-4.54l-147.08-254.45c-6-10.35-7.58-22.43-4.5-33.99,3.1-11.56,10.49-21.23,20.87-27.21,10.35-5.98,22.43-7.58,33.99-4.48,11.56,3.1,21.23,10.49,27.21,20.84l119.73,207.13c2.51,4.33,1.03,9.9-3.33,12.4-4.33,2.51-9.9,1.03-12.4-3.33l-119.73-207.13c-3.55-6.14-9.3-10.56-16.18-12.38-6.88-1.85-14.05-.9-20.21,2.67-6.16,3.55-10.56,9.3-12.4,16.18-1.83,6.88-.88,14.05,2.67,20.21l147.08,254.45c2.51,4.33,1.03,9.9-3.33,12.4-1.44.82-3,1.21-4.54,1.21h.02Z" style="fill: #040000; stroke: #070001; stroke-miterlimit: 10; stroke-width: 5.83px;"/>
        <path d="M565.58,595.73c-3.14,0-6.18-1.62-7.87-4.54l-52.92-91.55c-12.36-21.38-5.03-48.84,16.37-61.2,10.35-5.98,22.45-7.58,33.99-4.48,11.56,3.1,21.23,10.49,27.21,20.84l52.92,91.55c2.51,4.33,1.03,9.9-3.33,12.4-4.33,2.51-9.9,1.03-12.4-3.33l-52.92-91.55c-3.55-6.14-9.3-10.56-16.18-12.38-6.9-1.85-14.07-.9-20.21,2.67-12.71,7.35-17.09,23.68-9.73,36.39l52.92,91.55c2.51,4.33,1.03,9.9-3.33,12.4-1.44.82-3,1.21-4.54,1.21h.02Z" style="fill: #040000; stroke: #070001; stroke-miterlimit: 10; stroke-width: 5.83px;"/>
        <path d="M627.44,559.98c-3.14,0-6.18-1.62-7.87-4.54l-39.84-68.92c-6-10.35-7.58-22.43-4.5-33.99,3.08-11.56,10.49-21.23,20.87-27.21,10.35-6,22.43-7.58,33.99-4.48,11.56,3.1,21.23,10.49,27.21,20.84l39.84,68.92c2.51,4.33,1.03,9.9-3.33,12.4-4.33,2.51-9.9,1.03-12.4-3.33l-39.84-68.92c-3.55-6.14-9.3-10.56-16.18-12.38-6.88-1.85-14.05-.9-20.21,2.67-6.16,3.55-10.56,9.3-12.4,16.18-1.85,6.88-.88,14.05,2.67,20.21l39.84,68.92c2.51,4.33,1.03,9.9-3.33,12.4-1.44.82-3,1.21-4.54,1.21h.02Z" style="fill: #040000; stroke: #070001; stroke-miterlimit: 10; stroke-width: 5.83px;"/>
        <path d="M689.27,524.22c-3.14,0-6.18-1.62-7.87-4.54l-28.96-50.09c-12.36-21.38-6.67-47.89,12.67-59.08,9.57-5.52,20.91-6.53,31.93-2.81,10.62,3.59,19.69,11.15,25.57,21.32l28.96,50.09c2.51,4.33,1.03,9.9-3.33,12.4-4.33,2.51-9.9,1.03-12.4-3.33l-28.96-50.09c-3.66-6.35-9.22-11.03-15.65-13.18-6-2.03-12.05-1.56-17.02,1.31-10.68,6.18-13.39,21.54-6.04,34.25l28.96,50.09c2.51,4.33,1.03,9.9-3.33,12.4-1.44.82-3,1.21-4.54,1.21v.04Z" style="fill: #040000; stroke: #070001; stroke-miterlimit: 10; stroke-width: 5.83px;"/>
      </g>
      <path d="M658.39,741.64c-3.94,0-7.56-2.57-8.71-6.53-7.93-27.19-34.58-43.43-59.41-36.21-4.83,1.42-9.86-1.36-11.27-6.18-1.4-4.81,1.36-9.86,6.18-11.25,34.42-10.04,71.18,11.73,81.94,48.55,1.4,4.81-1.36,9.86-6.18,11.25-.84.25-1.7.37-2.55.37Z" style="fill: #040000; stroke: #070001; stroke-miterlimit: 10; stroke-width: 5.83px;"/>
    </g>
  </g>
</svg>