<?xml version="1.0" encoding="UTF-8"?>
<svg id="_レイヤー_1" data-name="レイヤー_1" xmlns="http://www.w3.org/2000/svg" version="1.1" viewBox="0 0 850.39 850.39">
  <!-- Generator: Adobe Illustrator 29.8.2, SVG Export Plug-In . SVG Version: 2.1.1 Build 3)  -->
  <path d="M734.41,808.79H115.98c-51.7,0-93.75-42.06-93.75-93.76v-357.46c0-51.7,42.06-93.76,93.76-93.76h618.42c51.7,0,93.76,42.06,93.76,93.76v357.46c0,51.7-42.06,93.76-93.76,93.76h0ZM115.98,290.79c-36.84,0-66.81,29.97-66.81,66.81v357.46c0,36.84,29.97,66.81,66.81,66.81h618.42c36.84,0,66.81-29.97,66.81-66.81v-357.46c0-36.84-29.97-66.81-66.81-66.81H115.98Z" style="fill: #040000;"/>
  <path d="M58.04,783.94c-3.87,0-7.69-1.65-10.36-4.84-4.77-5.72-4-14.21,1.72-18.98l342.05-284.79c19.88-16.68,48.88-16.76,68.88-.15l341.15,280.79c5.74,4.72,6.57,13.21,1.85,18.96-4.72,5.74-13.21,6.57-18.96,1.85l-341.2-280.82c-10.01-8.32-24.5-8.29-34.44.05L66.63,780.82c-2.52,2.1-5.57,3.12-8.62,3.12h.03Z" style="fill: #040000;"/>
  <path d="M792.03,315.19c-5.04,0-9.86-2.82-12.16-7.69l-67.63-141.98c-3.2-6.72-.35-14.76,6.37-17.96,6.72-3.2,14.76-.35,17.96,6.37l67.63,141.98c3.2,6.72.35,14.76-6.37,17.96-1.87.9-3.85,1.32-5.79,1.32Z" style="fill: #040000;"/>
  <path d="M58.99,314.69c-2,0-4.02-.45-5.94-1.37-6.67-3.3-9.44-11.36-6.14-18.03l69.33-140.98c3.3-6.67,11.34-9.44,18.03-6.14,6.67,3.3,9.44,11.36,6.14,18.03l-69.33,140.98c-2.35,4.77-7.12,7.54-12.11,7.54l.02-.02Z" style="fill: #040000;"/>
  <g>
    <path d="M296.28,494.98c-2.85,0-5.69-.9-8.14-2.75L50.85,311.94c-5.92-4.5-7.07-12.96-2.57-18.88,4.5-5.92,12.96-7.07,18.88-2.57l237.28,180.29c5.92,4.5,7.07,12.96,2.57,18.88-2.65,3.5-6.67,5.32-10.74,5.32h0Z" style="fill: #040000;"/>
    <path d="M555.44,494.98c-4.07,0-8.09-1.82-10.74-5.32-4.5-5.92-3.35-14.39,2.57-18.88l236.61-179.77c5.94-4.5,14.39-3.35,18.88,2.57s3.35,14.39-2.57,18.88l-236.61,179.77c-2.45,1.85-5.29,2.75-8.14,2.75h0Z" style="fill: #040000;"/>
  </g>
  <path d="M128.32,368.91c-7.44,0-13.49-6.04-13.49-13.49V98.49c0-35.56,28.92-64.48,64.48-64.48h494.02c35.56,0,64.48,28.92,64.48,64.48v254.62c0,7.44-6.04,13.49-13.49,13.49s-13.49-6.04-13.49-13.49V98.49c0-20.7-16.83-37.54-37.54-37.54H179.29c-20.7,0-37.54,16.83-37.54,37.54v256.94c0,7.44-6.04,13.49-13.49,13.49h.05Z" style="fill: #040000;"/>
</svg>