<?xml version="1.0" encoding="UTF-8"?>
<svg id="_レイヤー_1" data-name="レイヤー_1" xmlns="http://www.w3.org/2000/svg" version="1.1" viewBox="0 0 850.39 850.39">
  <!-- Generator: Adobe Illustrator 29.8.2, SVG Export Plug-In . SVG Version: 2.1.1 Build 3)  -->
  <path d="M716.65,361.62c-20.88,0-37.87-16.98-37.87-37.87s16.98-37.87,37.87-37.87,37.87,16.98,37.87,37.87-16.98,37.87-37.87,37.87ZM716.65,312.7c-6.12,0-11.08,4.98-11.08,11.08s4.98,11.08,11.08,11.08,11.08-4.98,11.08-11.08-4.98-11.08-11.08-11.08Z" style="fill: #040000;"/>
  <g>
    <path d="M774.12,714.58H75.19c-32.8,0-59.49-26.68-59.49-59.49v-362.94c0-32.8,26.68-59.49,59.49-59.49h698.94c32.8,0,59.49,26.68,59.49,59.49v362.94c0,32.8-26.68,59.49-59.49,59.49h0ZM75.18,259.46c-18.02,0-32.7,14.68-32.7,32.7v362.94c0,18.04,14.68,32.7,32.7,32.7h698.94c18.02,0,32.7-14.68,32.7-32.7v-362.94c0-18.04-14.68-32.7-32.7-32.7H75.18Z" style="fill: #040000;"/>
    <path d="M285.54,259.46c-.59,0-1.19-.04-1.78-.13-7.33-.97-12.47-7.71-11.5-15.04l16.79-125.98c.89-6.65,6.56-11.63,13.28-11.63h244.7c6.71,0,12.39,4.98,13.28,11.63l16.79,125.98c.97,7.33-4.17,14.06-11.5,15.04-7.33.97-14.06-4.17-15.04-11.5l-15.25-114.38h-221.24l-15.25,114.38c-.89,6.73-6.65,11.63-13.26,11.63h-.04Z" style="fill: #040000;"/>
    <path d="M479.69,196.45h-103.98c-7.39,0-13.38-5.99-13.38-13.38s5.99-13.38,13.38-13.38h103.98c7.39,0,13.38,5.99,13.38,13.38s-5.99,13.38-13.38,13.38Z" style="fill: #040000;"/>
    <path d="M427.7,661.36c-103.51,0-187.72-84.22-187.72-187.72s84.22-187.72,187.72-187.72,187.72,84.22,187.72,187.72-84.22,187.72-187.72,187.72ZM427.7,312.7c-88.75,0-160.95,72.19-160.95,160.95s72.19,160.95,160.95,160.95,160.95-72.19,160.95-160.95-72.19-160.95-160.95-160.95Z" style="fill: #040000;"/>
    <path d="M227.56,196.45h-110.1c-7.39,0-13.38-5.99-13.38-13.38s5.99-13.38,13.38-13.38h110.1c7.39,0,13.38,5.99,13.38,13.38s-5.99,13.38-13.38,13.38Z" style="fill: #040000;"/>
  </g>
</svg>