<?xml version="1.0" encoding="UTF-8"?>
<svg id="_レイヤー_1" data-name="レイヤー_1" xmlns="http://www.w3.org/2000/svg" version="1.1" viewBox="0 0 850.39 850.39">
  <!-- Generator: Adobe Illustrator 29.8.2, SVG Export Plug-In . SVG Version: 2.1.1 Build 3)  -->
  <path d="M596.77,828.8H116.34c-50.47,0-91.52-41.05-91.52-91.52V105.51c0-50.47,41.05-91.52,91.52-91.52h480.43c50.47,0,91.54,41.05,91.54,91.52v116.55c0,7.14-5.78,12.92-12.92,12.92s-12.92-5.78-12.92-12.92v-116.55c0-36.2-29.48-65.66-65.7-65.66H116.34c-36.2,0-65.66,29.46-65.66,65.66v631.78c0,36.2,29.46,65.66,65.66,65.66h480.43c36.22,0,65.7-29.46,65.7-65.66v-281.16c0-7.14,5.78-12.92,12.92-12.92s12.92,5.78,12.92,12.92v281.16c0,50.47-41.07,91.52-91.54,91.52Z" style="fill: #040000;"/>
  <g>
    <path d="M461.81,622.38c-2.81,0-5.61-1.13-7.64-3.36l-69.65-76.29c-3.86-4.21-3.56-10.76.65-14.6l350.25-319.76c18.81-17.17,48.09-15.84,65.27,2.97l21.32,23.35c8.31,9.12,12.59,20.93,12.02,33.25-.57,12.33-5.89,23.7-14.99,32.01l-350.25,319.76c-1.99,1.81-4.47,2.71-6.96,2.71l-.02-.04ZM406.75,536.4l55.71,61.01,342.61-312.78c10.39-9.49,11.13-25.66,1.64-36.05l-21.32-23.35c-9.49-10.39-25.66-11.13-36.05-1.64l-342.61,312.78.02.02Z" style="fill: #040000;"/>
    <path d="M340.7,662.99c-2.86,0-5.65-1.18-7.64-3.36-2.77-3.03-3.47-7.4-1.83-11.15l51.43-116.92c1.42-3.21,4.34-5.48,7.79-6.04,3.47-.57,6.96.65,9.32,3.23l69.65,76.29c2.36,2.57,3.25,6.18,2.38,9.58-.87,3.38-3.4,6.09-6.72,7.2l-121.11,40.61c-1.07.35-2.18.55-3.29.55l.02.02ZM395.23,554.45l-35.63,80.98,83.86-28.13-48.25-52.85h.02Z" style="fill: #040000;"/>
  </g>
  <path d="M306.29,668.97h-174.11c-7.14,0-12.92-5.78-12.92-12.92s5.78-12.92,12.92-12.92h174.11c7.14,0,12.92,5.78,12.92,12.92s-5.78,12.92-12.92,12.92Z" style="fill: #040000;"/>
  <path d="M352.35,518.4h-220.15c-7.14,0-12.92-5.78-12.92-12.92s5.78-12.92,12.92-12.92h220.15c7.14,0,12.92,5.78,12.92,12.92s-5.78,12.92-12.92,12.92Z" style="fill: #040000;"/>
  <path d="M504.64,350.71H132.2c-7.14,0-12.92-5.78-12.92-12.92s5.78-12.92,12.92-12.92h372.44c7.14,0,12.92,5.78,12.92,12.92s-5.78,12.92-12.92,12.92Z" style="fill: #040000;"/>
  <path d="M583.52,179.07H132.18c-7.14,0-12.92-5.78-12.92-12.92s5.78-12.92,12.92-12.92h451.34c7.14,0,12.92,5.78,12.92,12.92s-5.78,12.92-12.92,12.92Z" style="fill: #040000;"/>
</svg>